<svg xmlns="http://www.w3.org/2000/svg" width="83.276" height="32.953" viewBox="0 0 83.276 32.953">
  <g id="Logo" transform="translate(-295.5 -249.158)">
    <path id="B" d="M311.211,426.319a8.227,8.227,0,0,0-7.4-7.883,7.667,7.667,0,0,1-6.748-7.937,9.45,9.45,0,0,0-1.566,4.913v19.329h8.261A8.331,8.331,0,0,0,311.211,426.319Zm-8.018,3.806H300.44v-6.371h2.807a3.207,3.207,0,0,1-.054,6.371Z" transform="translate(0 -152.631)" fill="#069ddd"/>
    <path id="G" d="M324.566,257.793a8.227,8.227,0,0,0,7.4,7.883,7.668,7.668,0,0,1,6.749,7.937,9.449,9.449,0,0,0,1.566-4.913V249.37h-8.261A8.331,8.331,0,0,0,324.566,257.793Zm8.018-3.806h2.754v6.371H332.53a3.207,3.207,0,0,1,.054-6.371Z" transform="translate(-27.496 -0.201)" fill="#069ddd"/>
    <path id="Path_1" data-name="Path 1" d="M25.487-239.366a4,4,0,0,1,2.185.611A4.186,4.186,0,0,1,29.193-237a6.086,6.086,0,0,1,.557,2.7,6.1,6.1,0,0,1-.557,2.689,4.175,4.175,0,0,1-1.521,1.76,4,4,0,0,1-2.185.611,3.574,3.574,0,0,1-1.946-.513,2.979,2.979,0,0,1-1.185-1.4v1.787H19.331v-13.092h3.025v5.006a2.979,2.979,0,0,1,1.185-1.4A3.573,3.573,0,0,1,25.487-239.366Zm-.973,2.654a2.058,2.058,0,0,0-1.566.646,2.458,2.458,0,0,0-.611,1.76,2.465,2.465,0,0,0,.611,1.751,2.045,2.045,0,0,0,1.566.654,2.039,2.039,0,0,0,1.566-.637,2.494,2.494,0,0,0,.593-1.769,2.5,2.5,0,0,0-.593-1.769A2.039,2.039,0,0,0,24.514-236.713Zm10.561-2.654a3.574,3.574,0,0,1,1.946.513,3.084,3.084,0,0,1,1.2,1.4v-1.787h3.007v9.871H38.224v-1.787a3.085,3.085,0,0,1-1.2,1.4,3.574,3.574,0,0,1-1.946.513,4,4,0,0,1-2.185-.611,4.175,4.175,0,0,1-1.521-1.76,6.1,6.1,0,0,1-.557-2.689,6.086,6.086,0,0,1,.557-2.7,4.186,4.186,0,0,1,1.522-1.751A4,4,0,0,1,35.075-239.366Zm.973,2.654a2.039,2.039,0,0,0-1.566.637,2.494,2.494,0,0,0-.593,1.769,2.5,2.5,0,0,0,.593,1.769,2.039,2.039,0,0,0,1.566.637,2.045,2.045,0,0,0,1.566-.655,2.464,2.464,0,0,0,.611-1.751,2.458,2.458,0,0,0-.611-1.76A2.059,2.059,0,0,0,36.048-236.713Zm9.942,4.812h4.564v2.53H42.682v-2.388l4.246-4.971H42.753v-2.512h7.625v2.388Zm9.747-7.465a3.574,3.574,0,0,1,1.946.513,3.084,3.084,0,0,1,1.2,1.4v-1.787h3.007v9.871H58.887v-1.787a3.085,3.085,0,0,1-1.2,1.4,3.574,3.574,0,0,1-1.946.513,4,4,0,0,1-2.185-.611,4.175,4.175,0,0,1-1.521-1.76,6.1,6.1,0,0,1-.557-2.689,6.086,6.086,0,0,1,.557-2.7,4.186,4.186,0,0,1,1.521-1.751,4,4,0,0,1,2.185-.61Zm.973,2.654a2.039,2.039,0,0,0-1.566.637,2.494,2.494,0,0,0-.593,1.769,2.5,2.5,0,0,0,.593,1.769,2.039,2.039,0,0,0,1.566.637,2.045,2.045,0,0,0,1.566-.655,2.464,2.464,0,0,0,.611-1.751,2.458,2.458,0,0,0-.611-1.76,2.059,2.059,0,0,0-1.566-.646Zm11.021-2.654a3.574,3.574,0,0,1,1.946.513,3.084,3.084,0,0,1,1.2,1.4v-1.787h3.007v9.871H70.881v-1.787a3.084,3.084,0,0,1-1.2,1.4,3.574,3.574,0,0,1-1.946.513,4,4,0,0,1-2.185-.611,4.175,4.175,0,0,1-1.522-1.76,6.1,6.1,0,0,1-.557-2.689,6.086,6.086,0,0,1,.557-2.7,4.187,4.187,0,0,1,1.521-1.751A4,4,0,0,1,67.732-239.366Zm.973,2.654a2.039,2.039,0,0,0-1.566.637,2.494,2.494,0,0,0-.593,1.769,2.5,2.5,0,0,0,.593,1.769,2.039,2.039,0,0,0,1.566.637,2.045,2.045,0,0,0,1.566-.655,2.464,2.464,0,0,0,.611-1.751,2.458,2.458,0,0,0-.611-1.76,2.059,2.059,0,0,0-1.566-.646Zm10.3-.672a4.293,4.293,0,0,1,1.459-1.433,3.726,3.726,0,0,1,1.937-.531v3.237H81.53a2.989,2.989,0,0,0-1.866.513A2.061,2.061,0,0,0,79-233.864v4.493H75.975v-9.871H79Z" transform="translate(296.379 491.62)" fill="#069ddd"/>
    <path id="Path_2" data-name="Path 2" d="M14.092-239.366a3.574,3.574,0,0,1,1.946.513,3.084,3.084,0,0,1,1.2,1.4v-1.787h3.007v9.818a5.671,5.671,0,0,1-.531,2.485,4.071,4.071,0,0,1-1.628,1.76,5.236,5.236,0,0,1-2.724.655,5.6,5.6,0,0,1-3.565-1.053,4.283,4.283,0,0,1-1.6-2.857h2.99a1.5,1.5,0,0,0,.646.938,2.335,2.335,0,0,0,1.318.336,2.12,2.12,0,0,0,1.512-.54,2.27,2.27,0,0,0,.575-1.725v-1.733a3.085,3.085,0,0,1-1.2,1.4,3.578,3.578,0,0,1-1.946.512,4,4,0,0,1-2.185-.611,4.175,4.175,0,0,1-1.521-1.76,6.1,6.1,0,0,1-.557-2.689,6.086,6.086,0,0,1,.557-2.7,4.186,4.186,0,0,1,1.521-1.751A4,4,0,0,1,14.092-239.366Zm.973,2.654a2.039,2.039,0,0,0-1.566.637,2.494,2.494,0,0,0-.593,1.769,2.5,2.5,0,0,0,.593,1.769,2.039,2.039,0,0,0,1.566.637,2.045,2.045,0,0,0,1.566-.655,2.464,2.464,0,0,0,.611-1.751,2.458,2.458,0,0,0-.611-1.76,2.059,2.059,0,0,0-1.566-.646ZM28.6-239.348a3.417,3.417,0,0,1,2.7,1.132,4.541,4.541,0,0,1,1,3.113v5.732H29.271v-5.378a2.175,2.175,0,0,0-.522-1.548,1.813,1.813,0,0,0-1.389-.557,1.89,1.89,0,0,0-1.459.584,2.361,2.361,0,0,0-.54,1.663v5.236H22.336v-13.091h3.025v5.024a3.256,3.256,0,0,1,1.265-1.4,3.71,3.71,0,0,1,1.972-.513Zm9.447-.018a3.574,3.574,0,0,1,1.946.513,3.084,3.084,0,0,1,1.2,1.4v-1.787H44.2v9.871H41.194v-1.787a3.085,3.085,0,0,1-1.2,1.4,3.576,3.576,0,0,1-1.946.513,4,4,0,0,1-2.185-.611,4.175,4.175,0,0,1-1.521-1.76,6.1,6.1,0,0,1-.557-2.689,6.086,6.086,0,0,1,.557-2.7,4.186,4.186,0,0,1,1.521-1.751,4,4,0,0,1,2.185-.61Zm.973,2.654a2.039,2.039,0,0,0-1.566.637,2.494,2.494,0,0,0-.593,1.769,2.5,2.5,0,0,0,.593,1.769,2.039,2.039,0,0,0,1.566.637,2.045,2.045,0,0,0,1.566-.655,2.464,2.464,0,0,0,.611-1.751,2.458,2.458,0,0,0-.611-1.76,2.058,2.058,0,0,0-1.566-.646Zm10.3-.672a4.293,4.293,0,0,1,1.459-1.433,3.726,3.726,0,0,1,1.937-.531v3.237h-.867a2.989,2.989,0,0,0-1.866.513,2.061,2.061,0,0,0-.663,1.734v4.493H46.289v-9.871h3.025Z" transform="translate(305.915 506.62)" fill="#069ddd"/>
  </g>
</svg>