<svg xmlns="http://www.w3.org/2000/svg" xmlns:xlink="http://www.w3.org/1999/xlink" width="28" height="28" viewBox="0 0 28 28">
  <defs>
    <clipPath id="clip-path">
      <rect id="Rectangle_2215" data-name="Rectangle 2215" width="18.043" height="18.455" fill="#fff"/>
    </clipPath>
  </defs>
  <g id="bazaar" transform="translate(-233 -101)">
    <circle id="Ellipse_467" data-name="Ellipse 467" cx="14" cy="14" r="14" transform="translate(233 101)" fill="#ff8319"/>
    <g id="Group_3130" data-name="Group 3130" transform="translate(238.479 105.467)">
      <g id="Group_3129" data-name="Group 3129" clip-path="url(#clip-path)">
        <path id="Path_10291" data-name="Path 10291" d="M64.38,0c.353.1.714.172,1.059.291a6.15,6.15,0,0,1,3.118,2.376,6.37,6.37,0,0,1,1.056,2.707.59.59,0,0,1-.507.724.554.554,0,0,1-.62-.519,5.192,5.192,0,0,0-1.657-3.159,5.159,5.159,0,0,0-8.407,2.3c-.092.3-.138.622-.2.934-.081.4-.306.578-.667.523a.637.637,0,0,1-.474-.716A6.262,6.262,0,0,1,59.833,1,5.989,5.989,0,0,1,62.266.028c.015,0,.028-.019.043-.028Z" transform="translate(-54.304)" fill="#fff"/>
        <path id="Path_10292" data-name="Path 10292" d="M18.027,154.256a1.037,1.037,0,0,0-.821-.913,4.7,4.7,0,0,0-.99-.054q-3.6-.006-7.194,0-2.426,0-4.85,0c-1.035,0-2.071,0-3.106.01A1.142,1.142,0,0,0,.733,155.5a.242.242,0,0,1,.182.208q.283,1.362.572,2.723.369,1.751.739,3.5c.109.519.2,1.044.325,1.557a1.056,1.056,0,0,0,1.064.807q5.523,0,11.047,0a.993.993,0,0,0,.936-.59,2.761,2.761,0,0,0,.191-.691q.365-1.7.721-3.395c.281-1.332.56-2.664.846-4a.365.365,0,0,1,.133-.213,1.108,1.108,0,0,0,.535-1.164M5.2,161.529a.457.457,0,0,1-.647.464.413.413,0,0,1-.257-.417v-2.252h0v-2.234c0-.377.17-.532.543-.492a.333.333,0,0,1,.331.3,7.135,7.135,0,0,1,.032.742c0,1.295,0,2.59,0,3.885m2.911-.023c0,.382-.186.544-.557.507a.359.359,0,0,1-.324-.273.67.67,0,0,1-.025-.2q0-2.249,0-4.5a.424.424,0,0,1,.232-.419.5.5,0,0,1,.5.041.473.473,0,0,1,.176.432q0,1.1,0,2.194c0,.737,0,1.475,0,2.213m2.907.041a.409.409,0,0,1-.428.471.416.416,0,0,1-.476-.463c0-.956,0-1.912,0-2.869q0-.808,0-1.616c0-.32.153-.479.457-.482.284,0,.444.161.446.474,0,.75,0,1.5,0,2.251h0Zm2.256.44a.409.409,0,0,1-.253-.439q0-.75,0-1.5v-1.432q0-.766,0-1.533c0-.362.178-.519.537-.485.242.023.368.187.368.491q0,1.425,0,2.85c0,.533,0,1.065,0,1.6,0,.458-.351.54-.654.45" transform="translate(0 -145.85)" fill="#fff"/>
      </g>
    </g>
  </g>
</svg>
