<svg xmlns="http://www.w3.org/2000/svg" xmlns:xlink="http://www.w3.org/1999/xlink" width="28" height="28" viewBox="0 0 28 28">
  <defs>
    <clipPath id="clip-path">
      <rect id="Rectangle_2216" data-name="Rectangle 2216" width="19.49" height="14.998" fill="none"/>
    </clipPath>
  </defs>
  <g id="Brand" transform="translate(-20 -100)">
    <circle id="Ellipse_468" data-name="Ellipse 468" cx="14" cy="14" r="14" transform="translate(20 100)" fill="#ff8319"/>
    <g id="Group_3132" data-name="Group 3132" transform="translate(24 107)">
      <g id="Group_3131" data-name="Group 3131" clip-path="url(#clip-path)">
        <path id="Path_10293" data-name="Path 10293" d="M2.435,24.974A1.233,1.233,0,0,1,1.22,26.209a1.218,1.218,0,0,1-.033-2.435,1.228,1.228,0,0,1,1.247,1.2" transform="translate(0 -20.554)" fill="#fff"/>
        <path id="Path_10294" data-name="Path 10294" d="M65.42,1.225a1.217,1.217,0,1,1-2.434-.033,1.217,1.217,0,0,1,2.434.033" transform="translate(-54.456 0)" fill="#fff"/>
        <path id="Path_10295" data-name="Path 10295" d="M128.379,25.007a1.217,1.217,0,1,1-1.215-1.231,1.234,1.234,0,0,1,1.215,1.231" transform="translate(-108.889 -20.556)" fill="#fff"/>
        <path id="Path_10296" data-name="Path 10296" d="M31.006,28.066c-.371,2.146-.714,4.3-1.067,6.446-.169,1.028-.557,1.354-1.6,1.356H18.5c-.938,0-1.337-.309-1.5-1.227q-.579-3.37-1.125-6.745a1.153,1.153,0,0,1,.548-1.22,1.174,1.174,0,0,1,1.338.014c.727.46,1.456.922,2.161,1.414.269.188.372.138.528-.126.608-1.032,1.238-2.052,1.868-3.07a1.227,1.227,0,0,1,2.282.019c.611.991,1.224,1.981,1.813,2.985.18.3.3.4.636.158.639-.467,1.32-.878,1.983-1.315a1.231,1.231,0,0,1,1.468-.064,1.248,1.248,0,0,1,.5,1.377" transform="translate(-13.711 -20.87)" fill="#fff"/>
      </g>
    </g>
  </g>
</svg>
