<svg xmlns="http://www.w3.org/2000/svg" width="44.589" height="33.022" viewBox="0 0 44.589 33.022">
  <g id="Group_2764" data-name="Group 2764" transform="translate(-304.654 -24.9)">
    <g id="Group_1727" data-name="Group 1727" transform="translate(304.754 25)">
      <path id="Path_2032" data-name="Path 2032" d="M170.12,309.218a3.222,3.222,0,1,0,3.226,3.225A3.219,3.219,0,0,0,170.12,309.218Z" transform="translate(-149.545 -282.839)" fill="#fff" stroke="#069ddd" stroke-width="0.2"/>
      <path id="Path_2033" data-name="Path 2033" d="M296.562,309.218a3.222,3.222,0,1,0,3.224,3.225A3.22,3.22,0,0,0,296.562,309.218Z" transform="translate(-262.843 -282.839)" fill="#fff" stroke="#069ddd" stroke-width="0.2"/>
      <path id="Path_2036" data-name="Path 2036" d="M16.134,61.521,17.2,65.086H39.549L35.905,77.154H18.4L11.828,55.467H0v3.538H9.176L15.76,80.716H38.531l5.823-19.2Z" transform="translate(0 -55.467)" fill="#fff" stroke="#069ddd" stroke-width="0.2"/>
    </g>
  </g>
</svg>
