<svg xmlns="http://www.w3.org/2000/svg" xmlns:xlink="http://www.w3.org/1999/xlink" width="28" height="28" viewBox="0 0 28 28">
  <defs>
    <clipPath id="clip-path">
      <rect id="Rectangle_2544" data-name="Rectangle 2544" width="19.49" height="17.549" fill="#fff"/>
    </clipPath>
  </defs>
  <g id="Group_3411" data-name="Group 3411" transform="translate(-2911 -1470)">
    <circle id="Ellipse_468" data-name="Ellipse 468" cx="14" cy="14" r="14" transform="translate(2911 1470)" fill="#ff8319"/>
    <g id="Group_3410" data-name="Group 3410" transform="translate(2915 1475)">
      <g id="Group_3409" data-name="Group 3409" clip-path="url(#clip-path)">
        <path id="Path_10403" data-name="Path 10403" d="M36.892,69.932a2.183,2.183,0,1,1-2.174-2.178,2.175,2.175,0,0,1,2.174,2.178" transform="translate(-31.328 -65.258)" fill="#fff"/>
        <path id="Path_10404" data-name="Path 10404" d="M87.142,234.739a1.254,1.254,0,0,0-1.292-1.29c-1.117,0-2.234,0-3.351,0-.316,0-.316,0-.319-.315a1.393,1.393,0,0,0-1.424-1.418c-.479,0-.957,0-1.436,0a1.555,1.555,0,0,0-.292.022,1.4,1.4,0,0,0-1.154,1.5c0,.161-.031.215-.207.214-1.166-.009-2.332-.007-3.5,0a1.241,1.241,0,0,0-1.245,1.122,3.467,3.467,0,0,0-.006.68,1.24,1.24,0,0,0,1.147,1.166c.134.013.168.066.2.176q.529,1.779,1.066,3.556a.674.674,0,0,0,.772.577h7.862a.66.66,0,0,0,.749-.557q.537-1.8,1.074-3.592a.191.191,0,0,1,.2-.161,1.241,1.241,0,0,0,1.147-1.126,4.837,4.837,0,0,0,.009-.552m-8.572-1.483c.009-.469.207-.761.592-.825a2.3,2.3,0,0,1,.367-.01h1.195c.555,0,.816.408.751.963-.012.1-.091.063-.143.064-.435,0-.87,0-1.305,0s-.846-.008-1.269,0c-.16,0-.19-.049-.188-.2m-.711,6.232a.459.459,0,0,1-.508-.379c-.115-.626-.223-1.254-.333-1.882a1.877,1.877,0,0,1-.039-.309.459.459,0,0,1,.385-.449.436.436,0,0,1,.51.3c.151.75.278,1.5.4,2.189a.491.491,0,0,1-.416.533m2.62-.5a.467.467,0,1,1-.932.007q-.007-1.022,0-2.043a.458.458,0,0,1,.481-.489.465.465,0,0,1,.452.5c0,.343,0,.687,0,1.031s0,.663,0,.994m2.587-1.967q-.171,1.024-.355,2.046a.468.468,0,1,1-.93-.112q.173-1.052.367-2.1a.467.467,0,0,1,.555-.386.462.462,0,0,1,.363.551m2.9-2.177c-.014.459.055.4-.4.4q-2.761,0-5.523,0H74.352c-.257,0-.259,0-.257-.248,0-.433-.05-.371.37-.371q5.643,0,11.285,0c.175,0,.22.055.215.222" transform="translate(-70.218 -223.178)" fill="#fff"/>
        <path id="Path_10405" data-name="Path 10405" d="M209.677,2.192A2.182,2.182,0,1,1,207.515,0a2.184,2.184,0,0,1,2.162,2.191" transform="translate(-197.749 0)" fill="#fff"/>
        <path id="Path_10406" data-name="Path 10406" d="M380.14,77.056a2.18,2.18,0,1,1,2.185-2.184,2.182,2.182,0,0,1-2.185,2.184" transform="translate(-364.03 -70.018)" fill="#fff"/>
        <path id="Path_10407" data-name="Path 10407" d="M3.372,199.594H.465c-.416,0-.573-.235-.391-.61a2.589,2.589,0,0,1,2.312-1.563,13.142,13.142,0,0,1,2.168.017,2.57,2.57,0,0,1,2.151,1.6c.149.328-.008.558-.372.559-.987,0-1.974,0-2.962,0Z" transform="translate(0 -190.113)" fill="#fff"/>
        <path id="Path_10408" data-name="Path 10408" d="M176.153,132.456h-2.925c-.4,0-.553-.231-.382-.588a2.6,2.6,0,0,1,2.407-1.587c.6-.019,1.2-.018,1.8,0a2.6,2.6,0,0,1,2.427,1.613c.151.322-.01.561-.367.562q-1.481,0-2.962,0" transform="translate(-166.413 -125.469)" fill="#fff"/>
        <path id="Path_10409" data-name="Path 10409" d="M348.934,204.58H346.01c-.411,0-.563-.227-.386-.6a2.6,2.6,0,0,1,2.414-1.578,13.7,13.7,0,0,1,2.095.025,2.569,2.569,0,0,1,2.127,1.6c.143.319-.013.548-.364.548q-1.481,0-2.961,0" transform="translate(-332.822 -194.923)" fill="#fff"/>
      </g>
    </g>
  </g>
</svg>
