<svg id="Group_2108" data-name="Group 2108" xmlns="http://www.w3.org/2000/svg" width="23.862" height="24.589" viewBox="0 0 23.862 24.589">
  <g id="Group_4" data-name="Group 4" transform="translate(0)">
    <path id="Path_2" data-name="Path 2" d="M89.444,493.364c3.185,0,3.563.013,4.822.072a6.444,6.444,0,0,1,2.215.423,3.69,3.69,0,0,1,1.372.921,3.8,3.8,0,0,1,.892,1.414,6.99,6.99,0,0,1,.411,2.282c.057,1.3.069,1.685.069,4.968s-.012,3.672-.069,4.968a7,7,0,0,1-.411,2.283,3.824,3.824,0,0,1-.892,1.414,3.7,3.7,0,0,1-1.372.92,6.444,6.444,0,0,1-2.215.423c-1.258.059-1.636.072-4.822.072s-3.563-.013-4.821-.072a6.445,6.445,0,0,1-2.216-.423,3.69,3.69,0,0,1-1.371-.92,3.838,3.838,0,0,1-.893-1.414,7,7,0,0,1-.411-2.283c-.057-1.3-.069-1.685-.069-4.968s.012-3.672.069-4.968a6.991,6.991,0,0,1,.411-2.282,3.819,3.819,0,0,1,.893-1.414,3.679,3.679,0,0,1,1.371-.921,6.445,6.445,0,0,1,2.216-.423c1.258-.059,1.635-.072,4.821-.072m0-2.215c-3.24,0-3.646.014-4.919.074a8.527,8.527,0,0,0-2.9.572,5.82,5.82,0,0,0-2.113,1.418,6.039,6.039,0,0,0-1.377,2.177,9.27,9.27,0,0,0-.554,2.985c-.058,1.311-.073,1.73-.073,5.069s.015,3.758.073,5.069a9.248,9.248,0,0,0,.554,2.984,6.037,6.037,0,0,0,1.377,2.179,5.812,5.812,0,0,0,2.113,1.417,8.5,8.5,0,0,0,2.9.572c1.272.06,1.679.074,4.919.074s3.646-.014,4.919-.074a8.5,8.5,0,0,0,2.9-.572,5.83,5.83,0,0,0,2.113-1.417,6.047,6.047,0,0,0,1.376-2.179,9.223,9.223,0,0,0,.554-2.984c.059-1.311.073-1.73.073-5.069s-.014-3.758-.073-5.069a9.245,9.245,0,0,0-.554-2.985,6.049,6.049,0,0,0-1.376-2.177,5.838,5.838,0,0,0-2.113-1.418,8.526,8.526,0,0,0-2.9-.572c-1.273-.06-1.679-.074-4.919-.074" transform="translate(-77.513 -491.149)" fill="#555"/>
    <path id="Path_3" data-name="Path 3" d="M89.926,497.627a6.316,6.316,0,1,0,6.127,6.314,6.222,6.222,0,0,0-6.127-6.314m0,10.412a4.1,4.1,0,1,1,3.977-4.1,4.04,4.04,0,0,1-3.977,4.1" transform="translate(-77.995 -491.646)" fill="#555"/>
    <path id="Path_4" data-name="Path 4" d="M98.645,497.234a1.432,1.432,0,1,1-1.432-1.475,1.454,1.454,0,0,1,1.432,1.475" transform="translate(-78.914 -491.503)" fill="#555"/>
  </g>
</svg>
