<svg xmlns="http://www.w3.org/2000/svg" width="28.001" height="28" viewBox="0 0 28.001 28">
  <g id="live" transform="translate(0)">
    <path id="Path_9691" data-name="Path 9691" d="M2146.037,4326.192h-2.076c-.447-.074-.9-.058-1.349-.139a13.986,13.986,0,0,1-6.559-3.053,13.838,13.838,0,0,1-4.01-5.471,12.352,12.352,0,0,1-.98-4.342,16.607,16.607,0,0,1,.151-3.452,14.078,14.078,0,0,1,8.519-10.542,12.35,12.35,0,0,1,4.343-.979,16.626,16.626,0,0,1,3.452.151,14.084,14.084,0,0,1,10.542,8.52,13.414,13.414,0,0,1,.906,3.365c.04.3.014.614.068.917v2.131c-.071.456-.06.919-.144,1.376a14.106,14.106,0,0,1-8.522,10.544,13.351,13.351,0,0,1-3.393.91C2146.669,4326.168,2146.35,4326.143,2146.037,4326.192Z" transform="translate(-2131.04 -4298.192)" fill="#fe1803"/>
    <path id="Path_9692" data-name="Path 9692" d="M2238.188,4390.317q0-2.484,0-4.97a.963.963,0,0,1,.863-1.045,1.108,1.108,0,0,1,.72.2q2.738,1.575,5.478,3.147c1.023.588,2.048,1.172,3.069,1.765a.982.982,0,0,1,.492,1.331,1.211,1.211,0,0,1-.556.539q-4.023,2.317-8.044,4.639c-.149.086-.3.169-.446.262a1.008,1.008,0,0,1-1.578-.9Q2238.192,4392.8,2238.188,4390.317Z" transform="translate(-2228.277 -4376.332)" fill="#fefefe"/>
  </g>
</svg>
