<svg xmlns="http://www.w3.org/2000/svg" width="33.815" height="33.814" viewBox="0 0 33.815 33.814">
  <path id="Path_9906" data-name="Path 9906" d="M-1180.719,727.457c-.058-.367-.027-.741-.076-1.107a15.947,15.947,0,0,0-1.7-5.373,16.475,16.475,0,0,0-4.086-5.039,16.176,16.176,0,0,0-7.632-3.552,19.384,19.384,0,0,0-4.048-.175,15.1,15.1,0,0,0-6.458,1.771,16.179,16.179,0,0,0-5.067,4.1,16.157,16.157,0,0,0-3.55,7.632,19.349,19.349,0,0,0-.174,4.047,15.07,15.07,0,0,0,1.757,6.429,16.2,16.2,0,0,0,4.115,5.1,16.255,16.255,0,0,0,7.664,3.556c.546.1,1.1.079,1.645.163h.256a1.609,1.609,0,0,1,.7,0h.513a1.273,1.273,0,0,1,.64,0h.192l.073-.01c.365-.043.735-.018,1.1-.066a15.952,15.952,0,0,0,5.339-1.685,16.5,16.5,0,0,0,5.064-4.094,16.267,16.267,0,0,0,3.566-7.65c.1-.556.086-1.119.168-1.675v-.256a1.606,1.606,0,0,1,0-.7v-.512a1.606,1.606,0,0,1,0-.7Zm-27.323,10.55a14.3,14.3,0,0,1-.246-18.574,14.392,14.392,0,0,1,21.016-1.412,14.372,14.372,0,0,1,1.078,20.02,11.3,11.3,0,0,0-2.548-4.772,11.344,11.344,0,0,0-4.5-3.059,6.853,6.853,0,0,0,3.02-5.768,6.548,6.548,0,0,0-2.093-4.888,6.858,6.858,0,0,0-9.961.376A6.916,6.916,0,0,0-1201,730.207,11.379,11.379,0,0,0-1208.042,738.007Zm10.921-8.536a4.993,4.993,0,0,1-4.977-4.989,5,5,0,0,1,5-4.965,5,5,0,0,1,4.961,4.978A5,5,0,0,1-1197.121,729.471Zm.058,13.612a14.506,14.506,0,0,1-9.19-3.261.245.245,0,0,1-.124-.261,9.263,9.263,0,0,1,4.514-6.786,8.86,8.86,0,0,1,5.636-1.269,9.14,9.14,0,0,1,6.816,4.025,9.071,9.071,0,0,1,1.547,3.98.294.294,0,0,1-.123.32,14.528,14.528,0,0,1-6.636,3.034A15.112,15.112,0,0,1-1197.063,743.083Z" transform="translate(1214.034 -711.692)" fill="#fff" stroke="#fff" stroke-width="1"/>
</svg>
