<svg xmlns="http://www.w3.org/2000/svg" xmlns:xlink="http://www.w3.org/1999/xlink" width="28" height="28" viewBox="0 0 28 28">
  <defs>
    <clipPath id="clip-path">
      <rect id="Rectangle_2217" data-name="Rectangle 2217" width="18.903" height="18.895" fill="none"/>
    </clipPath>
  </defs>
  <g id="offers" transform="translate(-129 -142)">
    <circle id="Ellipse_469" data-name="Ellipse 469" cx="14" cy="14" r="14" transform="translate(129 142)" fill="#ff8319"/>
    <g id="Group_3135" data-name="Group 3135" transform="translate(133.977 146.978)">
      <g id="Group_3134" data-name="Group 3134" clip-path="url(#clip-path)">
        <path id="Path_10297" data-name="Path 10297" d="M8.077,7.05a.569.569,0,0,0-.555.57.561.561,0,0,0,.58.56.569.569,0,0,0,.55-.575.582.582,0,0,0-.575-.555m.815,5.593a.562.562,0,0,0-.574.549.565.565,0,1,0,.574-.549m0,0a.562.562,0,0,0-.574.549.565.565,0,1,0,.574-.549M8.077,7.05a.569.569,0,0,0-.555.57.561.561,0,0,0,.58.56.569.569,0,0,0,.55-.575.582.582,0,0,0-.575-.555m10.774.627c-.417-1.714-.85-3.424-1.282-5.134-.026-.1-.032-.225-.145-.288a.336.336,0,0,0-.164.121c-.643.642-1.283,1.287-1.93,1.926a.362.362,0,0,0-.108.416,1.555,1.555,0,0,1-.406,1.677,1.564,1.564,0,0,1-1.666.387,1.637,1.637,0,0,1,1.009-3.115.387.387,0,0,0,.447-.116c.629-.639,1.265-1.27,1.9-1.9a.387.387,0,0,0,.134-.177.668.668,0,0,0-.4-.176C14.617.884,12.988.486,11.363.071A1.8,1.8,0,0,0,9.515.592Q5.061,5.064.593,9.523a1.7,1.7,0,0,0,0,2.573Q3.7,15.21,6.815,18.323a2.1,2.1,0,0,0,.375.312,1.692,1.692,0,0,0,2.158-.3q2.376-2.373,4.749-4.75L18.365,9.31a1.649,1.649,0,0,0,.486-1.633M8.076,5.922a1.694,1.694,0,1,1,.007,3.387,1.694,1.694,0,0,1-.007-3.387m.809,8.98a1.694,1.694,0,1,1,1.691-1.684A1.7,1.7,0,0,1,8.885,14.9M12.1,10.578l-5.47.606c-.566.063-1.132.128-1.635.186a.58.58,0,0,1-.666-.514.57.57,0,0,1,.534-.61c.479-.056.959-.1,1.438-.158l3.92-.437c.591-.066,1.182-.136,1.774-.2a.566.566,0,1,1,.106,1.125M8.892,12.644a.562.562,0,0,0-.574.549.565.565,0,1,0,.574-.549M8.1,8.18a.569.569,0,0,0,.55-.575.582.582,0,0,0-.575-.555.569.569,0,0,0-.555.57.561.561,0,0,0,.58.56M8.077,7.05a.569.569,0,0,0-.555.57.561.561,0,0,0,.58.56.569.569,0,0,0,.55-.575.582.582,0,0,0-.575-.555m0,0a.569.569,0,0,0-.555.57.561.561,0,0,0,.58.56.569.569,0,0,0,.55-.575.582.582,0,0,0-.575-.555" transform="translate(0 0)" fill="#fff"/>
        <path id="Path_10298" data-name="Path 10298" d="M261.482,93.174a.568.568,0,0,1-.563.562.581.581,0,0,1-.566-.564.569.569,0,0,1,.578-.566.557.557,0,0,1,.551.568" transform="translate(-247.251 -87.945)" fill="#fff"/>
        <path id="Path_10299" data-name="Path 10299" d="M150.584,140.641a.569.569,0,0,1-.55.575.561.561,0,0,1-.58-.56.569.569,0,0,1,.555-.57.582.582,0,0,1,.575.555" transform="translate(-141.932 -133.035)" fill="#fff"/>
        <path id="Path_10300" data-name="Path 10300" d="M166.411,251.794a.565.565,0,1,1-1.129-.02.565.565,0,0,1,1.129.02" transform="translate(-156.963 -238.582)" fill="#fff"/>
        <path id="Path_10301" data-name="Path 10301" d="M261.482,93.174a.568.568,0,0,1-.563.562.581.581,0,0,1-.566-.564.569.569,0,0,1,.578-.566.557.557,0,0,1,.551.568" transform="translate(-247.251 -87.945)" fill="#fff"/>
        <path id="Path_10302" data-name="Path 10302" d="M150.584,140.641a.569.569,0,0,1-.55.575.561.561,0,0,1-.58-.56.569.569,0,0,1,.555-.57.582.582,0,0,1,.575.555" transform="translate(-141.932 -133.035)" fill="#fff"/>
        <path id="Path_10303" data-name="Path 10303" d="M166.411,251.794a.565.565,0,1,1-1.129-.02.565.565,0,0,1,1.129.02" transform="translate(-156.963 -238.582)" fill="#fff"/>
      </g>
    </g>
  </g>
</svg>
