<svg xmlns="http://www.w3.org/2000/svg" width="28" height="28" viewBox="0 0 28 28">
  <g id="store" transform="translate(-129 -100)">
    <circle id="Ellipse_465" data-name="Ellipse 465" cx="14" cy="14" r="14" transform="translate(129 100)" fill="#ff8319"/>
    <g id="Group_2227" data-name="Group 2227" transform="translate(134.467 105.467)">
      <path id="Path_9693" data-name="Path 9693" d="M3693.042-84.392c0-.049,0-.1,0-.148-.011-.183-.059-.226-.239-.185a3.409,3.409,0,0,1-.783.067c-.6,0-1.192,0-1.79,0a2.141,2.141,0,0,1-1.276-.407c-.166-.119-.191-.12-.361,0a2.118,2.118,0,0,1-1.276.4q-2.02,0-4.04,0a2.094,2.094,0,0,1-1.336-.418.245.245,0,0,0-.339,0,2.1,2.1,0,0,1-1.3.42q-.984,0-1.971,0a2.408,2.408,0,0,1-.457-.042c-.361-.068-.37-.06-.37.308q0,3.637,0,7.274c0,.066,0,.131,0,.2a.71.71,0,0,0,.606.724h1.543a.426.426,0,0,0,.052-.3q0-2.9,0-5.8a1.171,1.171,0,0,1,.054-.421.6.6,0,0,1,.584-.423q1.775-.009,3.548,0a.6.6,0,0,1,.584.423,1.194,1.194,0,0,1,.054.421q0,2.9,0,5.8a.434.434,0,0,0,.051.3h7.852a.709.709,0,0,0,.605-.724c.005-.066,0-.131,0-.2Zm-2.163,3.932a.7.7,0,0,1-.76.755q-1.7,0-3.4,0a.7.7,0,0,1-.75-.747q0-1,0-2a.7.7,0,0,1,.75-.747c.569,0,1.138,0,1.708,0s1.127,0,1.691,0a.7.7,0,0,1,.76.755Q3690.882-81.454,3690.879-80.461Z" transform="translate(-3676.857 93.022)" fill="#fff"/>
      <path id="Path_9694" data-name="Path 9694" d="M3610.193-380.308c-.053.02-.041.074-.052.112a1.342,1.342,0,0,1-1.25,1.015c-.765.031-1.534.033-2.3,0a1.347,1.347,0,0,1-1.275-1.108l-.036-.136a1.423,1.423,0,0,1-.508.938,1.507,1.507,0,0,1-1.008.322c-1.336,0-2.671,0-4.008,0a1.418,1.418,0,0,1-1.475-1.254c-.024.1-.039.177-.065.254a1.305,1.305,0,0,1-1.174.976,16.538,16.538,0,0,1-2.461,0,1.357,1.357,0,0,1-1.205-1.288c-.012-.229,0-.46-.006-.69,0-.082.024-.109.1-.1a.761.761,0,0,0,.1,0h16.442c.06,0,.12.005.18.008Z" transform="translate(-3593.37 386.883)" fill="#fff"/>
      <path id="Path_9695" data-name="Path 9695" d="M4354.625-1112.648c-.833,0-1.665,0-2.5,0-.128,0-.156-.028-.131-.154q.466-2.305.922-4.612c.023-.112.063-.145.179-.144q1.528.009,3.055,0c.111,0,.146.036.167.136q.46,2.315.926,4.628c.024.116-.006.146-.125.145C4356.289-1112.651,4355.457-1112.648,4354.625-1112.648Z" transform="translate(-4346.208 1117.555)" fill="#fff"/>
      <path id="Path_9696" data-name="Path 9696" d="M3616.324-1112.219c.152-.533.3-1.047.447-1.561q.4-1.385.791-2.771a.707.707,0,0,1,.754-.571h3.145c-.143.725-.285,1.438-.427,2.15-.171.862-.348,1.724-.515,2.588-.025.13-.071.171-.209.17-1.27-.007-2.54,0-3.811,0Z" transform="translate(-3616.149 1117.125)" fill="#fff"/>
      <path id="Path_9697" data-name="Path 9697" d="M5104.843-1117.115h3.124a.71.71,0,0,1,.773.588q.6,2.085,1.193,4.172c.014.042.021.084.032.135-.039,0-.07.009-.1.009-1.3,0-2.608,0-3.911,0-.11,0-.148-.035-.169-.137q-.458-2.316-.923-4.63C5104.853-1117.017,5104.851-1117.061,5104.843-1117.115Z" transform="translate(-5093.326 1117.119)" fill="#fff"/>
    </g>
  </g>
</svg>
